<?xml version="1.0" standalone="no"?>
<!DOCTYPE svg PUBLIC "-//W3C//DTD SVG 20010904//EN"
 "http://www.w3.org/TR/2001/REC-SVG-20010904/DTD/svg10.dtd">
<svg version="1.0" xmlns="http://www.w3.org/2000/svg"
 width="460.000000pt" height="460.000000pt" viewBox="0 0 460.000000 460.000000"
 preserveAspectRatio="xMidYMid meet">
<metadata>
Created by potrace 1.14, written by Peter Selinger 2001-2017
</metadata>
<g transform="translate(0.000000,460.000000) scale(0.100000,-0.100000)"
fill="#000000" stroke="none">
<path d="M2095 4573 c-44 -4 -180 -23 -207 -29 -13 -2 -34 -6 -48 -9 -58 -11
-74 -15 -166 -40 -108 -29 -309 -105 -348 -131 -14 -9 -26 -13 -26 -9 0 4 -6
3 -12 -3 -7 -5 -42 -25 -78 -44 -114 -61 -194 -110 -230 -140 -8 -7 -31 -24
-51 -38 -247 -168 -519 -489 -676 -795 -61 -119 -153 -352 -168 -425 -2 -8 -8
-35 -15 -60 -7 -25 -14 -54 -16 -65 -4 -22 -11 -56 -19 -95 -24 -120 -30 -215
-29 -425 2 -326 55 -584 179 -876 43 -100 144 -293 156 -297 5 -2 9 -8 9 -12
0 -5 15 -30 32 -56 18 -25 38 -53 43 -62 35 -57 171 -217 252 -296 373 -366
829 -586 1352 -651 107 -13 444 -13 531 -1 42 7 173 30 230 41 113 22 408 125
488 170 15 8 38 19 52 25 14 5 48 23 75 39 28 17 66 40 85 51 63 37 60 34 194
136 49 37 105 81 123 98 79 73 161 156 203 205 25 29 53 63 64 75 36 42 153
212 193 281 108 187 215 452 248 613 34 170 47 241 54 312 9 87 7 455 -3 500
-3 14 -9 45 -12 70 -6 51 -54 271 -61 282 -2 5 -6 16 -8 25 -3 19 -32 107 -42
133 -4 8 -7 18 -8 23 -2 4 -4 9 -5 12 -1 3 -4 8 -5 13 -21 69 -145 313 -210
412 -154 236 -331 425 -550 590 -50 37 -108 78 -130 91 -22 13 -42 26 -45 30
-10 13 -236 128 -325 164 -79 33 -213 80 -255 90 -275 66 -409 83 -625 82 -88
-1 -173 -3 -190 -4z"/>
</g>
</svg>
